<?xml version="1.0" encoding="UTF-8"?><svg id="a" xmlns="http://www.w3.org/2000/svg" viewBox="0 0 4025.88 75.83"><defs><style>.b{fill:#fff;}</style></defs><path class="b" d="M127.21,75.43c6.53-11.34,12.65-21.97,18.79-32.6,7.57-13.11,15.08-26.26,22.85-39.25,.98-1.63,3.38-3.41,5.13-3.43C197.96-.07,221.93,0,245.9,.02c.6,0,1.21,.2,2.34,.4-.96,1.92-1.66,3.54-2.54,5.07-12.81,22.19-25.58,44.41-38.57,66.49-1.02,1.74-3.66,3.57-5.57,3.59-23.8,.24-47.6,.15-71.4,.14-.65,0-1.29-.11-2.94-.27h-.01Z"/><path class="b" d="M40.53,75.11c9-15.61,17.71-30.72,26.42-45.82,4.99-8.64,9.88-17.34,15.07-25.86,.94-1.54,3.13-3.26,4.75-3.28C111.4-.06,136.02,0,161.32,0c-.62,1.54-.94,2.74-1.54,3.78-13.13,22.76-26.24,45.54-39.54,68.2-.98,1.67-3.35,3.56-5.09,3.58-24.13,.22-48.26,.13-72.39,.1-.45,0-.9-.22-2.22-.55h-.01Z"/><path class="b" d="M213.76,75.7c7.92-13.74,15.22-26.41,22.53-39.07,6.32-10.95,12.54-21.96,19.05-32.79,1.01-1.68,3.32-3.65,5.05-3.67C285.01-.07,309.63,0,335.3,0c-1.26,2.39-2.16,4.23-3.18,5.99-12.47,21.61-25.03,43.17-37.36,64.86-2.06,3.63-4.35,5.03-8.6,4.98-22.3-.24-44.6-.13-66.91-.14h-5.49Z"/><path class="b" d="M301.02,74.73c10.21-17.67,20.29-35.1,30.36-52.53,3.75-6.49,7.39-13.05,11.33-19.42,.8-1.29,2.7-2.69,4.11-2.7C371.31-.06,395.81,0,420.31,.04c.28,0,.55,.24,1.35,.62-1.15,2.16-2.22,4.33-3.43,6.43-12.61,21.75-25.21,43.51-37.95,65.18-.83,1.42-2.83,3.04-4.3,3.06-24.49,.22-48.98,.2-73.47,.21-.27,0-.55-.28-1.48-.8h0Z"/><path class="b" d="M474.42,75.43c6.53-11.34,12.65-21.97,18.79-32.6,7.57-13.11,15.08-26.26,22.85-39.25,.98-1.63,3.38-3.41,5.13-3.43C545.16-.07,569.13,0,593.11,.02c.6,0,1.21,.2,2.34,.4-.96,1.92-1.66,3.54-2.54,5.07-12.81,22.19-25.58,44.41-38.57,66.49-1.02,1.74-3.66,3.57-5.57,3.59-23.8,.24-47.6,.15-71.4,.14-.65,0-1.29-.11-2.94-.27h-.01Z"/><path class="b" d="M387.74,75.11c9-15.61,17.71-30.72,26.42-45.82,4.99-8.64,9.88-17.34,15.07-25.86,.94-1.54,3.13-3.26,4.75-3.28C458.61-.06,483.24,0,508.53,0c-.62,1.54-.94,2.74-1.54,3.78-13.13,22.76-26.24,45.54-39.54,68.2-.98,1.67-3.35,3.56-5.09,3.58-24.13,.22-48.26,.13-72.39,.1-.45,0-.9-.22-2.22-.55h0Z"/><path class="b" d="M560.97,75.7c7.92-13.74,15.22-26.41,22.53-39.07,6.32-10.95,12.54-21.96,19.05-32.79,1.01-1.68,3.32-3.65,5.05-3.67C632.22-.07,656.85,0,682.51,0c-1.26,2.39-2.16,4.23-3.18,5.99-12.47,21.61-25.03,43.17-37.36,64.86-2.06,3.63-4.35,5.03-8.6,4.98-22.3-.24-44.6-.13-66.91-.14h-5.49Z"/><path class="b" d="M648.23,74.73c10.21-17.67,20.29-35.1,30.36-52.53,3.75-6.49,7.39-13.05,11.33-19.42,.8-1.29,2.7-2.69,4.11-2.7C718.52-.06,743.02,0,767.52,.04c.28,0,.55,.24,1.35,.62-1.15,2.16-2.22,4.33-3.43,6.43-12.61,21.75-25.21,43.51-37.95,65.18-.83,1.42-2.83,3.04-4.3,3.06-24.49,.22-48.98,.2-73.47,.21-.27,0-.55-.28-1.48-.8h-.01Z"/><path class="b" d="M75.51,.58c-4.73,8.27-9.3,16.31-13.92,24.32-8.98,15.57-18.05,31.1-26.94,46.72-1.65,2.9-3.41,4.44-7,4.17-4.8-.37-9.65,.02-14.48-.1C4.89,75.48,.11,70.75,.07,62.55-.02,46.06-.02,29.57,.07,13.09,.12,5.36,4.59,.13,11.61,.08c20.65-.16,41.3-.05,61.95-.02,.44,0,.88,.23,1.95,.52Z"/><path class="b" d="M1029.47,.28c-6.53,11.34-12.65,21.97-18.79,32.6-7.57,13.11-15.08,26.26-22.85,39.25-.98,1.63-3.38,3.41-5.13,3.43-23.97,.22-47.94,.15-71.92,.13-.6,0-1.21-.2-2.34-.4,.96-1.92,1.66-3.54,2.54-5.07,12.81-22.19,25.58-44.41,38.57-66.49,1.02-1.74,3.66-3.57,5.57-3.59C978.92-.1,1002.72-.01,1026.52,0c.65,0,1.29,.11,2.94,.27h.01Z"/><path class="b" d="M1116.15,.59c-9,15.61-17.71,30.72-26.42,45.82-4.99,8.64-9.88,17.34-15.07,25.86-.94,1.54-3.13,3.26-4.75,3.28-24.62,.21-49.25,.14-74.54,.14,.62-1.54,.94-2.74,1.54-3.78,13.13-22.76,26.24-45.54,39.54-68.2,.98-1.67,3.35-3.56,5.09-3.58C1065.67-.09,1089.8,0,1113.93,.03c.45,0,.9,.22,2.22,.55h0Z"/><path class="b" d="M942.92,.13c-7.92,13.74-15.22,26.41-22.53,39.07-6.32,10.95-12.54,21.96-19.05,32.79-1.01,1.68-3.32,3.65-5.05,3.67-24.62,.24-49.25,.16-74.92,.16,1.26-2.39,2.16-4.23,3.18-5.99,12.47-21.61,25.03-43.17,37.36-64.86,2.06-3.63,4.35-5.03,8.6-4.98,22.3,.24,44.6,.13,66.91,.14h5.5Z"/><path class="b" d="M855.66,.79c-10.21,17.67-20.29,35.1-30.36,52.53-3.75,6.49-7.39,13.05-11.33,19.42-.8,1.29-2.7,2.69-4.11,2.7-24.49,.14-48.99,.08-73.49,.04-.28,0-.55-.24-1.35-.62,1.15-2.16,2.22-4.33,3.43-6.43,12.61-21.75,25.21-43.51,37.95-65.18,.83-1.42,2.83-3.04,4.3-3.06C805.2-.02,829.69,0,854.18,0c.27,0,.55,.28,1.48,.8h0Z"/><path class="b" d="M2037.28,75.23c4.73-8.27,9.3-16.31,13.92-24.32,8.98-15.57,18.05-31.1,26.94-46.72,1.65-2.9,3.41-4.44,7-4.17,4.8,.37,9.65-.02,14.48,.1,8.27,.21,13.05,4.94,13.1,13.14,.09,16.49,.09,32.97,0,49.46-.04,7.73-4.52,12.96-11.54,13.01-20.65,.16-41.3,.05-61.95,.02-.44,0-.88-.23-1.95-.52Z"/><path class="b" d="M1082.25,75.43c6.53-11.34,12.65-21.97,18.79-32.6,7.57-13.11,15.08-26.26,22.85-39.25,.98-1.63,3.38-3.41,5.13-3.43C1152.99-.07,1176.96,0,1200.94,.02c.6,0,1.21,.2,2.34,.4-.96,1.92-1.66,3.54-2.54,5.07-12.81,22.19-25.58,44.41-38.57,66.49-1.02,1.74-3.66,3.57-5.57,3.59-23.8,.24-47.6,.15-71.4,.14-.65,0-1.29-.11-2.94-.27h-.01Z"/><path class="b" d="M1168.79,75.7c7.92-13.74,15.22-26.41,22.53-39.07,6.32-10.95,12.54-21.96,19.05-32.79,1.01-1.68,3.32-3.65,5.05-3.67,24.62-.24,49.25-.16,74.92-.16-1.26,2.39-2.16,4.23-3.18,5.99-12.47,21.61-25.03,43.17-37.36,64.86-2.06,3.63-4.35,5.03-8.6,4.98-22.3-.24-44.6-.13-66.91-.14h-5.5Z"/><path class="b" d="M1256.05,74.73c10.21-17.67,20.29-35.1,30.36-52.53,3.75-6.49,7.39-13.05,11.33-19.42,.8-1.29,2.7-2.69,4.11-2.7C1326.34-.06,1350.84,0,1375.34,.04c.28,0,.55,.24,1.35,.62-1.15,2.16-2.22,4.33-3.43,6.43-12.61,21.75-25.21,43.51-37.95,65.18-.83,1.42-2.83,3.04-4.3,3.06-24.49,.22-48.98,.2-73.47,.21-.27,0-.55-.28-1.48-.8h0Z"/><path class="b" d="M1429.46,75.43c6.53-11.34,12.65-21.97,18.79-32.6,7.57-13.11,15.08-26.26,22.85-39.25,.98-1.63,3.38-3.41,5.13-3.43C1500.2-.07,1524.17,0,1548.15,.02c.6,0,1.21,.2,2.34,.4-.96,1.92-1.66,3.54-2.54,5.07-12.81,22.19-25.58,44.41-38.57,66.49-1.02,1.74-3.66,3.57-5.57,3.59-23.8,.24-47.6,.15-71.4,.14-.65,0-1.29-.11-2.94-.27h-.01Z"/><path class="b" d="M1342.78,75.11c9-15.61,17.71-30.72,26.42-45.82,4.99-8.64,9.88-17.34,15.07-25.86,.94-1.54,3.13-3.26,4.75-3.28C1413.65-.06,1438.27,0,1463.57,0c-.62,1.54-.94,2.74-1.54,3.78-13.13,22.76-26.24,45.54-39.54,68.2-.98,1.67-3.35,3.56-5.09,3.58-24.13,.22-48.26,.13-72.39,.1-.45,0-.9-.22-2.22-.55h0Z"/><path class="b" d="M1516.01,75.7c7.92-13.74,15.22-26.41,22.53-39.07,6.32-10.95,12.54-21.96,19.05-32.79,1.01-1.68,3.32-3.65,5.05-3.67,24.62-.24,49.25-.16,74.92-.16-1.26,2.39-2.16,4.23-3.18,5.99-12.47,21.61-25.03,43.17-37.36,64.86-2.06,3.63-4.35,5.03-8.6,4.98-22.3-.24-44.6-.13-66.91-.14h-5.5Z"/><path class="b" d="M1603.27,74.73c10.21-17.67,20.29-35.1,30.36-52.53,3.75-6.49,7.39-13.05,11.33-19.42,.8-1.29,2.7-2.69,4.11-2.7C1673.56-.06,1698.06,0,1722.56,.04c.28,0,.55,.24,1.35,.62-1.15,2.16-2.22,4.33-3.43,6.43-12.61,21.75-25.21,43.51-37.95,65.18-.83,1.42-2.83,3.04-4.3,3.06-24.49,.22-48.98,.2-73.47,.21-.27,0-.55-.28-1.48-.8h0Z"/><path class="b" d="M1984.51,.28c-6.53,11.34-12.65,21.97-18.79,32.6-7.57,13.11-15.08,26.26-22.85,39.25-.98,1.63-3.38,3.41-5.13,3.43-23.97,.22-47.94,.15-71.92,.13-.6,0-1.21-.2-2.34-.4,.96-1.92,1.66-3.54,2.54-5.07,12.81-22.19,25.58-44.41,38.57-66.49,1.02-1.74,3.66-3.57,5.57-3.59C1933.96-.1,1957.76-.01,1981.56,0c.65,0,1.29,.11,2.94,.27h.01Z"/><path class="b" d="M2071.19,.59c-9,15.61-17.71,30.72-26.42,45.82-4.99,8.64-9.88,17.34-15.07,25.86-.94,1.54-3.13,3.26-4.75,3.28-24.62,.21-49.25,.14-74.54,.14,.62-1.54,.94-2.74,1.54-3.78,13.13-22.76,26.24-45.54,39.54-68.2,.98-1.67,3.35-3.56,5.09-3.58C2020.71-.09,2044.84,0,2068.97,.03c.45,0,.9,.22,2.22,.55h0Z"/><path class="b" d="M1897.96,.13c-7.92,13.74-15.22,26.41-22.53,39.07-6.32,10.95-12.54,21.96-19.05,32.79-1.01,1.68-3.32,3.65-5.05,3.67-24.62,.24-49.25,.16-74.92,.16,1.26-2.39,2.16-4.23,3.18-5.99,12.47-21.61,25.03-43.17,37.36-64.86,2.06-3.63,4.35-5.03,8.6-4.98,22.3,.24,44.6,.13,66.91,.14h5.5Z"/><path class="b" d="M1810.7,.79c-10.21,17.67-20.29,35.1-30.36,52.53-3.75,6.49-7.39,13.05-11.33,19.42-.8,1.29-2.7,2.69-4.11,2.7-24.49,.14-48.99,.08-73.49,.04-.28,0-.55-.24-1.35-.62,1.15-2.16,2.22-4.33,3.43-6.43,12.61-21.75,25.21-43.51,37.95-65.18,.83-1.42,2.83-3.04,4.3-3.06,24.49-.22,48.98-.2,73.47-.21,.27,0,.55,.28,1.48,.8h0Z"/><path class="b" d="M2036.88,75.36c6.53-11.34,12.65-21.97,18.79-32.6,7.57-13.11,15.08-26.26,22.85-39.25,.98-1.63,3.38-3.41,5.13-3.43,23.98-.22,47.95-.15,71.92-.13,.6,0,1.21,.2,2.34,.4-.96,1.92-1.66,3.54-2.54,5.07-12.81,22.19-25.58,44.41-38.57,66.49-1.02,1.74-3.66,3.57-5.57,3.59-23.8,.24-47.6,.15-71.4,.14-.65,0-1.29-.11-2.94-.27h-.01Z"/><path class="b" d="M2123.43,75.63c7.92-13.74,15.22-26.41,22.53-39.07,6.32-10.95,12.54-21.96,19.05-32.79,1.01-1.68,3.32-3.65,5.05-3.67,24.62-.24,49.24-.17,74.91-.17-1.26,2.39-2.16,4.23-3.18,5.99-12.47,21.61-25.03,43.17-37.36,64.86-2.06,3.63-4.35,5.03-8.6,4.98-22.3-.24-44.6-.13-66.91-.14h-5.49Z"/><path class="b" d="M2210.69,74.66c10.21-17.67,20.29-35.1,30.36-52.53,3.75-6.49,7.39-13.05,11.33-19.42,.8-1.29,2.7-2.69,4.11-2.7,24.49-.14,48.99-.08,73.49-.04,.28,0,.55,.24,1.35,.62-1.15,2.16-2.22,4.33-3.43,6.43-12.61,21.75-25.21,43.51-37.95,65.18-.83,1.42-2.83,3.04-4.3,3.06-24.49,.22-48.98,.2-73.47,.21-.27,0-.55-.28-1.48-.8h0Z"/><path class="b" d="M2384.09,75.36c6.53-11.34,12.65-21.97,18.79-32.6,7.57-13.11,15.08-26.26,22.85-39.25,.98-1.63,3.38-3.41,5.13-3.43,23.97-.22,47.94-.15,71.92-.13,.6,0,1.21,.2,2.34,.4-.96,1.92-1.66,3.54-2.54,5.07-12.81,22.19-25.58,44.41-38.57,66.49-1.02,1.74-3.66,3.57-5.57,3.59-23.8,.24-47.6,.15-71.4,.14-.65,0-1.29-.11-2.94-.27h-.01Z"/><path class="b" d="M2297.41,75.04c9-15.61,17.71-30.72,26.42-45.82,4.99-8.64,9.88-17.34,15.07-25.86,.94-1.54,3.13-3.26,4.75-3.28,24.63-.21,49.26-.15,74.55-.15-.62,1.54-.94,2.74-1.54,3.78-13.13,22.76-26.24,45.54-39.54,68.2-.98,1.67-3.35,3.56-5.09,3.58-24.13,.22-48.26,.13-72.39,.1-.45,0-.9-.22-2.22-.55h0Z"/><path class="b" d="M2470.64,75.63c7.92-13.74,15.22-26.41,22.53-39.07,6.32-10.95,12.54-21.96,19.05-32.79,1.01-1.68,3.32-3.65,5.05-3.67,24.62-.24,49.25-.17,74.91-.17-1.26,2.39-2.16,4.23-3.18,5.99-12.47,21.61-25.03,43.17-37.36,64.86-2.06,3.63-4.35,5.03-8.6,4.98-22.3-.24-44.6-.13-66.91-.14h-5.49Z"/><path class="b" d="M2557.9,74.66c10.21-17.67,20.29-35.1,30.36-52.53,3.75-6.49,7.39-13.05,11.33-19.42,.8-1.29,2.7-2.69,4.11-2.7,24.49-.14,48.99-.08,73.49-.04,.28,0,.55,.24,1.35,.62-1.15,2.16-2.22,4.33-3.43,6.43-12.61,21.75-25.21,43.51-37.95,65.18-.83,1.42-2.83,3.04-4.3,3.06-24.49,.22-48.98,.2-73.47,.21-.27,0-.55-.28-1.48-.8h-.01Z"/><path class="b" d="M2939.14,.21c-6.53,11.34-12.65,21.97-18.79,32.6-7.57,13.11-15.08,26.26-22.85,39.25-.98,1.63-3.38,3.41-5.13,3.43-23.97,.22-47.94,.15-71.92,.13-.6,0-1.21-.2-2.34-.4,.96-1.92,1.66-3.54,2.54-5.07,12.81-22.19,25.58-44.41,38.57-66.49,1.02-1.74,3.66-3.57,5.57-3.59,23.8-.24,47.6-.15,71.4-.14,.65,0,1.29,.11,2.94,.27h.01Z"/><path class="b" d="M3025.82,.52c-9,15.61-17.71,30.72-26.42,45.82-4.99,8.64-9.88,17.34-15.07,25.86-.94,1.54-3.13,3.26-4.75,3.28-24.62,.21-49.25,.14-74.54,.14,.62-1.54,.94-2.74,1.54-3.78,13.13-22.76,26.24-45.54,39.54-68.2,.98-1.67,3.35-3.56,5.09-3.58,24.13-.22,48.26-.13,72.39-.1,.45,0,.9,.22,2.22,.55h0Z"/><path class="b" d="M2852.59,.06c-7.92,13.74-15.22,26.41-22.53,39.07-6.32,10.95-12.54,21.96-19.05,32.79-1.01,1.68-3.32,3.65-5.05,3.67-24.62,.24-49.25,.16-74.92,.16,1.26-2.39,2.16-4.23,3.18-5.99,12.47-21.61,25.03-43.17,37.36-64.86,2.06-3.63,4.35-5.03,8.6-4.98,22.3,.24,44.6,.13,66.91,.14h5.5Z"/><path class="b" d="M2765.33,.72c-10.21,17.67-20.29,35.1-30.36,52.53-3.75,6.49-7.39,13.05-11.33,19.42-.8,1.29-2.7,2.69-4.11,2.7-24.49,.14-48.99,.08-73.49,.04-.28,0-.55-.24-1.35-.62,1.15-2.16,2.22-4.33,3.43-6.43,12.61-21.75,25.21-43.51,37.95-65.18,.83-1.42,2.83-3.04,4.3-3.06,24.5-.21,48.99-.19,73.48-.19,.27,0,.55,.28,1.48,.8h0Z"/><path class="b" d="M3946.95,75.16c4.73-8.27,9.3-16.31,13.92-24.32,8.98-15.57,18.05-31.1,26.94-46.72,1.65-2.9,3.41-4.44,7-4.17,4.8,.37,9.65-.02,14.48,.1,8.27,.21,13.05,4.94,13.1,13.14,.09,16.49,.09,32.97,0,49.46-.04,7.73-4.52,12.96-11.54,13.01-20.65,.16-41.3,.05-61.95,.02-.44,0-.88-.23-1.95-.52Z"/><path class="b" d="M2991.92,75.36c6.53-11.34,12.65-21.97,18.79-32.6,7.57-13.11,15.08-26.26,22.85-39.25,.98-1.63,3.38-3.41,5.13-3.43,23.97-.22,47.94-.15,71.92-.13,.6,0,1.21,.2,2.34,.4-.96,1.92-1.66,3.54-2.54,5.07-12.81,22.19-25.58,44.41-38.57,66.49-1.02,1.74-3.66,3.57-5.57,3.59-23.8,.24-47.6,.15-71.4,.14-.65,0-1.29-.11-2.94-.27h-.01Z"/><path class="b" d="M3078.46,75.63c7.92-13.74,15.22-26.41,22.53-39.07,6.32-10.95,12.54-21.96,19.05-32.79,1.01-1.68,3.32-3.65,5.05-3.67,24.62-.24,49.25-.16,74.92-.16-1.26,2.39-2.16,4.23-3.18,5.99-12.47,21.61-25.03,43.17-37.36,64.86-2.06,3.63-4.35,5.03-8.6,4.98-22.3-.24-44.6-.13-66.91-.14h-5.5Z"/><path class="b" d="M3165.72,74.66c10.21-17.67,20.29-35.1,30.36-52.53,3.75-6.49,7.39-13.05,11.33-19.42,.8-1.29,2.7-2.69,4.11-2.7,24.49-.14,48.99-.08,73.49-.04,.28,0,.55,.24,1.35,.62-1.15,2.16-2.22,4.33-3.43,6.43-12.61,21.75-25.21,43.51-37.95,65.18-.83,1.42-2.83,3.04-4.3,3.06-24.49,.22-48.98,.2-73.47,.21-.27,0-.55-.28-1.48-.8h0Z"/><path class="b" d="M3339.13,75.36c6.53-11.34,12.65-21.97,18.79-32.6,7.57-13.11,15.08-26.26,22.85-39.25,.98-1.63,3.38-3.41,5.13-3.43,23.97-.22,47.94-.15,71.92-.13,.6,0,1.21,.2,2.34,.4-.96,1.92-1.66,3.54-2.54,5.07-12.81,22.19-25.58,44.41-38.57,66.49-1.02,1.74-3.66,3.57-5.57,3.59-23.8,.24-47.6,.15-71.4,.14-.65,0-1.29-.11-2.94-.27h-.01Z"/><path class="b" d="M3252.45,75.04c9-15.61,17.71-30.72,26.42-45.82,4.99-8.64,9.88-17.34,15.07-25.86,.94-1.54,3.13-3.26,4.75-3.28,24.63-.21,49.25-.15,74.55-.15-.62,1.54-.94,2.74-1.54,3.78-13.13,22.76-26.24,45.54-39.54,68.2-.98,1.67-3.35,3.56-5.09,3.58-24.13,.22-48.26,.13-72.39,.1-.45,0-.9-.22-2.22-.55h0Z"/><path class="b" d="M3425.68,75.63c7.92-13.74,15.22-26.41,22.53-39.07,6.32-10.95,12.54-21.96,19.05-32.79,1.01-1.68,3.32-3.65,5.05-3.67,24.62-.24,49.25-.16,74.92-.16-1.26,2.39-2.16,4.23-3.18,5.99-12.47,21.61-25.03,43.17-37.36,64.86-2.06,3.63-4.35,5.03-8.6,4.98-22.3-.24-44.6-.13-66.91-.14h-5.5Z"/><path class="b" d="M3512.94,74.66c10.21-17.67,20.29-35.1,30.36-52.53,3.75-6.49,7.39-13.05,11.33-19.42,.8-1.29,2.7-2.69,4.11-2.7,24.49-.14,48.99-.08,73.49-.04,.28,0,.55,.24,1.35,.62-1.15,2.16-2.22,4.33-3.43,6.43-12.61,21.75-25.21,43.51-37.95,65.18-.83,1.42-2.83,3.04-4.3,3.06-24.49,.22-48.98,.2-73.47,.21-.27,0-.55-.28-1.48-.8h0Z"/><path class="b" d="M3894.18,.21c-6.53,11.34-12.65,21.97-18.79,32.6-7.57,13.11-15.08,26.26-22.85,39.25-.98,1.63-3.38,3.41-5.13,3.43-23.97,.22-47.94,.15-71.92,.13-.6,0-1.21-.2-2.34-.4,.96-1.92,1.66-3.54,2.54-5.07,12.81-22.19,25.58-44.41,38.57-66.49,1.02-1.74,3.66-3.57,5.57-3.59,23.8-.24,47.6-.15,71.4-.14,.65,0,1.29,.11,2.94,.27h.01Z"/><path class="b" d="M3980.86,.52c-9,15.61-17.71,30.72-26.42,45.82-4.99,8.64-9.88,17.34-15.07,25.86-.94,1.54-3.13,3.26-4.75,3.28-24.62,.21-49.25,.14-74.54,.14,.62-1.54,.94-2.74,1.54-3.78,13.13-22.76,26.24-45.54,39.54-68.2,.98-1.67,3.35-3.56,5.09-3.58,24.13-.22,48.26-.13,72.39-.1,.45,0,.9,.22,2.22,.55h0Z"/><path class="b" d="M3807.63,.06c-7.92,13.74-15.22,26.41-22.53,39.07-6.32,10.95-12.54,21.96-19.05,32.79-1.01,1.68-3.32,3.65-5.05,3.67-24.62,.24-49.25,.16-74.92,.16,1.26-2.39,2.16-4.23,3.18-5.99,12.47-21.61,25.03-43.17,37.36-64.86,2.06-3.63,4.35-5.03,8.6-4.98,22.3,.24,44.6,.13,66.91,.14h5.5Z"/><path class="b" d="M3720.37,.72c-10.21,17.67-20.29,35.1-30.36,52.53-3.75,6.49-7.39,13.05-11.33,19.42-.8,1.29-2.7,2.69-4.11,2.7-24.49,.14-48.99,.08-73.49,.04-.28,0-.55-.24-1.35-.62,1.15-2.16,2.22-4.33,3.43-6.43,12.61-21.75,25.21-43.51,37.95-65.18,.83-1.42,2.83-3.04,4.3-3.06,24.49-.22,48.98-.2,73.47-.21,.27,0,.55,.28,1.48,.8h0Z"/></svg>