<svg width="1157" height="76" viewBox="0 0 1157 76" fill="none" xmlns="http://www.w3.org/2000/svg">
<g clip-path="url(#clip0_3_12)">
<path d="M127.21 75.49C133.74 64.15 139.86 53.52 146 42.89C153.57 29.78 161.08 16.63 168.85 3.64C169.83 2.01 172.23 0.230001 173.98 0.210001C197.96 -0.0199988 221.93 0.0600012 245.9 0.0700012C246.5 0.0700012 247.11 0.270001 248.24 0.470001C247.28 2.39 246.58 4.01 245.7 5.54C232.89 27.73 220.12 49.95 207.13 72.03C206.11 73.77 203.47 75.6 201.56 75.62C177.76 75.86 153.96 75.77 130.16 75.76C129.51 75.76 128.87 75.65 127.22 75.49H127.21Z" fill="white"/>
<path d="M40.53 75.18C49.53 59.57 58.24 44.46 66.95 29.36C71.94 20.72 76.83 12.02 82.02 3.5C82.96 1.96 85.15 0.239997 86.77 0.219997C111.4 -3.48687e-06 136.02 0.0699965 161.32 0.0699965C160.7 1.61 160.38 2.81 159.78 3.85C146.65 26.61 133.54 49.39 120.24 72.05C119.26 73.72 116.89 75.61 115.15 75.63C91.02 75.85 66.89 75.76 42.76 75.73C42.31 75.73 41.86 75.51 40.54 75.18H40.53Z" fill="white"/>
<path d="M213.76 75.7C221.68 61.96 228.98 49.29 236.29 36.63C242.61 25.68 248.83 14.67 255.34 3.84C256.35 2.16 258.66 0.190003 260.39 0.170003C285.01 -0.0699972 309.63 2.78652e-06 335.3 2.78652e-06C334.04 2.39 333.14 4.23 332.12 5.99C319.65 27.6 307.09 49.16 294.76 70.85C292.7 74.48 290.41 75.88 286.16 75.83C263.86 75.59 241.56 75.7 219.25 75.69C217.8 75.69 216.36 75.69 213.75 75.69L213.76 75.7Z" fill="white"/>
<path d="M301.02 74.89C311.23 57.22 321.31 39.79 331.38 22.36C335.13 15.87 338.77 9.31 342.71 2.94C343.51 1.65 345.41 0.250002 346.82 0.240002C371.31 0.100002 395.81 0.160002 420.31 0.200002C420.59 0.200002 420.86 0.440002 421.66 0.820002C420.51 2.98 419.44 5.15 418.23 7.25C405.62 29 393.02 50.76 380.28 72.43C379.45 73.85 377.45 75.47 375.98 75.49C351.49 75.71 327 75.69 302.51 75.7C302.24 75.7 301.96 75.42 301.03 74.9L301.02 74.89Z" fill="white"/>
<path d="M474.42 75.49C480.95 64.15 487.07 53.52 493.21 42.89C500.78 29.78 508.29 16.63 516.06 3.64C517.04 2.01 519.44 0.23 521.19 0.21C545.16 -0.00999993 569.13 0.0600001 593.11 0.0800001C593.71 0.0800001 594.32 0.28 595.45 0.48C594.49 2.4 593.79 4.02 592.91 5.55C580.1 27.74 567.33 49.96 554.34 72.04C553.32 73.78 550.68 75.61 548.77 75.63C524.97 75.87 501.17 75.78 477.37 75.77C476.72 75.77 476.08 75.66 474.43 75.5L474.42 75.49Z" fill="white"/>
<path d="M387.74 75.18C396.74 59.57 405.45 44.46 414.16 29.36C419.15 20.72 424.04 12.02 429.23 3.5C430.17 1.96 432.36 0.240002 433.98 0.220002C458.6 0.0100019 483.23 0.0800019 508.52 0.0800019C507.9 1.62 507.58 2.82 506.98 3.86C493.85 26.62 480.74 49.4 467.44 72.06C466.46 73.73 464.09 75.62 462.35 75.64C438.22 75.86 414.09 75.77 389.96 75.74C389.51 75.74 389.06 75.52 387.74 75.19V75.18Z" fill="white"/>
<path d="M560.97 75.7C568.89 61.96 576.19 49.29 583.5 36.63C589.82 25.68 596.04 14.67 602.55 3.84C603.56 2.16 605.87 0.190003 607.6 0.170003C632.22 -0.0699972 656.85 2.78652e-06 682.51 2.78652e-06C681.25 2.39 680.35 4.23 679.33 5.99C666.86 27.6 654.3 49.16 641.97 70.85C639.91 74.48 637.62 75.88 633.37 75.83C611.07 75.59 588.77 75.7 566.46 75.69C565.01 75.69 563.57 75.69 560.96 75.69L560.97 75.7Z" fill="white"/>
<path d="M648.23 74.89C658.44 57.22 668.52 39.79 678.59 22.36C682.34 15.87 685.98 9.31 689.92 2.94C690.72 1.65 692.62 0.250002 694.03 0.240002C718.52 0.100002 743.02 0.160002 767.52 0.200002C767.8 0.200002 768.07 0.440002 768.87 0.820002C767.72 2.98 766.65 5.15 765.44 7.25C752.83 29 740.23 50.76 727.49 72.43C726.66 73.85 724.66 75.47 723.19 75.49C698.7 75.71 674.21 75.69 649.72 75.7C649.45 75.7 649.17 75.42 648.24 74.9L648.23 74.89Z" fill="white"/>
<path d="M75.51 0.590003C70.78 8.86 66.21 16.9 61.59 24.91C52.61 40.48 43.54 56.01 34.65 71.63C33 74.53 31.24 76.07 27.65 75.8C22.85 75.43 18 75.82 13.17 75.7C4.89 75.48 0.110002 70.76 0.0700024 62.56C-0.0199976 46.07 -0.0199976 29.58 0.0700024 13.1C0.120002 5.37 4.59 0.140003 11.61 0.0900032C32.26 -0.0699968 52.91 0.0400032 73.56 0.0700032C74 0.0700032 74.44 0.300003 75.51 0.590003Z" fill="white"/>
<path d="M1029.47 0.340002C1022.94 11.68 1016.82 22.31 1010.68 32.94C1003.11 46.05 995.6 59.2 987.83 72.19C986.85 73.82 984.45 75.6 982.7 75.62C958.73 75.84 934.76 75.77 910.78 75.75C910.18 75.75 909.57 75.55 908.44 75.35C909.4 73.43 910.1 71.81 910.98 70.28C923.79 48.09 936.56 25.87 949.55 3.79C950.57 2.05 953.21 0.220002 955.12 0.200002C978.92 -0.0399982 1002.72 0.0500018 1026.52 0.0600018C1027.17 0.0600018 1027.81 0.170002 1029.46 0.330002L1029.47 0.340002Z" fill="white"/>
<path d="M1116.15 0.649999C1107.15 16.26 1098.44 31.37 1089.73 46.47C1084.74 55.11 1079.85 63.81 1074.66 72.33C1073.72 73.87 1071.53 75.59 1069.91 75.61C1045.29 75.82 1020.66 75.75 995.37 75.75C995.99 74.21 996.31 73.01 996.91 71.97C1010.04 49.21 1023.15 26.43 1036.45 3.77C1037.43 2.1 1039.8 0.209999 1041.54 0.189999C1065.67 -0.0300009 1089.8 0.0599991 1113.93 0.0899991C1114.38 0.0899991 1114.83 0.309999 1116.15 0.639999V0.649999Z" fill="white"/>
<path d="M942.92 0.129998C935 13.87 927.7 26.54 920.39 39.2C914.07 50.15 907.85 61.16 901.34 71.99C900.33 73.67 898.02 75.64 896.29 75.66C871.67 75.9 847.04 75.82 821.37 75.82C822.63 73.43 823.53 71.59 824.55 69.83C837.02 48.22 849.58 26.66 861.91 4.97C863.97 1.34 866.26 -0.0600024 870.51 -0.0100024C892.81 0.229998 915.11 0.119998 937.42 0.129998C938.87 0.129998 940.31 0.129998 942.92 0.129998V0.129998Z" fill="white"/>
<path d="M855.66 0.939997C845.45 18.61 835.37 36.04 825.3 53.47C821.55 59.96 817.91 66.52 813.97 72.89C813.17 74.18 811.27 75.58 809.86 75.59C785.37 75.73 760.87 75.67 736.37 75.63C736.09 75.63 735.82 75.39 735.02 75.01C736.17 72.85 737.24 70.68 738.45 68.58C751.06 46.83 763.66 25.07 776.4 3.4C777.23 1.98 779.23 0.359997 780.7 0.339997C805.19 0.119997 829.68 0.139997 854.17 0.129997C854.44 0.129997 854.72 0.409997 855.65 0.929997L855.66 0.939997Z" fill="white"/>
<path d="M1081.17 75.24C1085.9 66.97 1090.47 58.93 1095.09 50.92C1104.07 35.35 1113.14 19.82 1122.03 4.2C1123.68 1.3 1125.44 -0.24 1129.03 0.0299998C1133.83 0.4 1138.68 0.00999982 1143.51 0.13C1151.78 0.34 1156.56 5.07 1156.61 13.27C1156.7 29.76 1156.7 46.24 1156.61 62.73C1156.57 70.46 1152.09 75.69 1145.07 75.74C1124.42 75.9 1103.77 75.79 1083.12 75.76C1082.68 75.76 1082.24 75.53 1081.17 75.24Z" fill="white"/>
</g>
<defs>
<clipPath id="clip0_3_12">
<rect width="1156.68" height="75.83" fill="white"/>
</clipPath>
</defs>
</svg>
